<svg width="153" height="51" viewBox="0 0 153 51" fill="none" xmlns="http://www.w3.org/2000/svg">
<rect x="0.210485" y="0.210485" width="151.66" height="50.2136" rx="25.1068" fill="#D39926"/>
<rect x="0.210485" y="0.210485" width="151.66" height="50.2136" rx="25.1068" stroke="white" stroke-width="0.42097"/>
<path d="M31.4345 18.3573L36.4745 32.3173H33.4945L29.1945 19.8373H30.3945L26.0945 32.3173H23.1345L28.1745 18.3573H31.4345ZM25.9945 27.4173H33.3945L34.1145 29.6573H25.2745L25.9945 27.4173ZM42.2003 32.4573C41.227 32.4573 40.367 32.2173 39.6203 31.7373C38.8736 31.2439 38.287 30.5706 37.8603 29.7173C37.4336 28.8506 37.2203 27.8706 37.2203 26.7773C37.2203 25.6706 37.4336 24.6906 37.8603 23.8373C38.287 22.9839 38.8736 22.3173 39.6203 21.8373C40.367 21.3439 41.227 21.0973 42.2003 21.0973C43.0803 21.0973 43.847 21.3239 44.5003 21.7773C45.1536 22.2306 45.627 22.8573 45.9203 23.6573V17.5173H48.7603V32.3173H47.4003C46.947 32.3173 46.587 32.1839 46.3203 31.9173C46.0536 31.6373 45.9203 31.2706 45.9203 30.8173V29.8773C45.627 30.6906 45.1536 31.3239 44.5003 31.7773C43.847 32.2306 43.0803 32.4573 42.2003 32.4573ZM43.0003 29.9973C43.5203 29.9973 44.0003 29.8706 44.4403 29.6173C44.8803 29.3639 45.2336 28.9973 45.5003 28.5173C45.7803 28.0373 45.9203 27.4573 45.9203 26.7773C45.9203 26.0839 45.7803 25.4973 45.5003 25.0173C45.2336 24.5373 44.8803 24.1773 44.4403 23.9373C44.0003 23.6839 43.5203 23.5573 43.0003 23.5573C42.507 23.5573 42.0336 23.6839 41.5803 23.9373C41.1403 24.1773 40.7803 24.5373 40.5003 25.0173C40.2336 25.4973 40.1003 26.0839 40.1003 26.7773C40.1003 27.4573 40.2336 28.0373 40.5003 28.5173C40.7803 28.9973 41.1403 29.3639 41.5803 29.6173C42.0336 29.8706 42.507 29.9973 43.0003 29.9973ZM55.755 32.4573C54.7817 32.4573 53.9217 32.2173 53.175 31.7373C52.4283 31.2439 51.8417 30.5706 51.415 29.7173C50.9883 28.8506 50.775 27.8706 50.775 26.7773C50.775 25.6706 50.9883 24.6906 51.415 23.8373C51.8417 22.9839 52.4283 22.3173 53.175 21.8373C53.9217 21.3439 54.7817 21.0973 55.755 21.0973C56.635 21.0973 57.4017 21.3239 58.055 21.7773C58.7083 22.2306 59.1817 22.8573 59.475 23.6573V17.5173H62.315V32.3173H60.955C60.5017 32.3173 60.1417 32.1839 59.875 31.9173C59.6083 31.6373 59.475 31.2706 59.475 30.8173V29.8773C59.1817 30.6906 58.7083 31.3239 58.055 31.7773C57.4017 32.2306 56.635 32.4573 55.755 32.4573ZM56.555 29.9973C57.075 29.9973 57.555 29.8706 57.995 29.6173C58.435 29.3639 58.7883 28.9973 59.055 28.5173C59.335 28.0373 59.475 27.4573 59.475 26.7773C59.475 26.0839 59.335 25.4973 59.055 25.0173C58.7883 24.5373 58.435 24.1773 57.995 23.9373C57.555 23.6839 57.075 23.5573 56.555 23.5573C56.0617 23.5573 55.5883 23.6839 55.135 23.9373C54.695 24.1773 54.335 24.5373 54.055 25.0173C53.7883 25.4973 53.655 26.0839 53.655 26.7773C53.655 27.4573 53.7883 28.0373 54.055 28.5173C54.335 28.9973 54.695 29.3639 55.135 29.6173C55.5883 29.8706 56.0617 29.9973 56.555 29.9973ZM74.0158 32.4573C72.9758 32.4573 72.1491 32.1506 71.5358 31.5373C70.9358 30.9106 70.6358 30.0239 70.6358 28.8773V23.5373H68.9158V21.2373H75.9358V23.5373H73.4958V28.9773C73.4958 29.3239 73.5958 29.5839 73.7958 29.7573C73.9958 29.9306 74.2224 30.0173 74.4758 30.0173C74.6358 30.0173 74.7824 29.9906 74.9158 29.9373C75.0624 29.8839 75.2024 29.8039 75.3358 29.6973L76.3358 31.6373C75.9891 31.9173 75.6291 32.1239 75.2558 32.2573C74.8824 32.3906 74.4691 32.4573 74.0158 32.4573ZM69.7558 22.1173V21.2373C70.0491 21.2373 70.2758 21.1506 70.4358 20.9773C70.6091 20.8039 70.6958 20.5706 70.6958 20.2773V18.4973H73.4958V19.8173C73.4958 20.0173 73.4424 20.2173 73.3358 20.4173C73.2424 20.6173 73.1091 20.7906 72.9358 20.9373C72.7624 21.0839 72.5558 21.1839 72.3158 21.2373L69.7558 22.1173ZM83.0556 32.4573C81.9889 32.4573 81.0289 32.2239 80.1756 31.7573C79.3356 31.2906 78.6623 30.6306 78.1556 29.7773C77.6623 28.9239 77.4156 27.9173 77.4156 26.7573C77.4156 25.5973 77.6689 24.5973 78.1756 23.7573C78.6823 22.9039 79.3689 22.2506 80.2356 21.7973C81.1023 21.3306 82.0689 21.0973 83.1356 21.0973C84.2023 21.0973 85.1623 21.3306 86.0156 21.7973C86.8823 22.2506 87.5689 22.9039 88.0756 23.7573C88.5823 24.5973 88.8356 25.5973 88.8356 26.7573C88.8356 27.9173 88.5756 28.9239 88.0556 29.7773C87.5489 30.6306 86.8556 31.2906 85.9756 31.7573C85.1089 32.2239 84.1356 32.4573 83.0556 32.4573ZM83.0556 29.9973C83.5489 29.9973 84.0156 29.8839 84.4556 29.6573C84.8956 29.4173 85.2556 29.0573 85.5356 28.5773C85.8156 28.0839 85.9556 27.4773 85.9556 26.7573C85.9556 26.0373 85.8156 25.4373 85.5356 24.9573C85.2689 24.4773 84.9156 24.1239 84.4756 23.8973C84.0489 23.6573 83.5889 23.5373 83.0956 23.5373C82.6023 23.5373 82.1423 23.6573 81.7156 23.8973C81.3023 24.1239 80.9623 24.4773 80.6956 24.9573C80.4289 25.4373 80.2956 26.0373 80.2956 26.7573C80.2956 27.4773 80.4223 28.0839 80.6756 28.5773C80.9289 29.0573 81.2623 29.4173 81.6756 29.6573C82.1023 29.8839 82.5623 29.9973 83.0556 29.9973Z" fill="white"/>
<path d="M100.952 16.272H116.577M100.952 21.7758H120.884M100.952 27.2796H128.04M100.952 32.7834H120.884" stroke="white" stroke-width="3.36776"/>
<path d="M125.165 11.3173V19.8787M129.446 15.598H120.885" stroke="white" stroke-width="3.36776"/>
</svg>
